<svg id="Layer_1" data-name="Layer 1" xmlns="http://www.w3.org/2000/svg" viewBox="0 0 364.112 182.591"><title>logo-black</title><path d="M963.612,445.081l-15.56-32.717a7.292,7.292,0,0,0-6.611-4.161l-93.287.324-47.967,90.649-47.374-.2L726.7,547.341l49.352-.3L750.7,590.121s104.621,1.579,128.11-.1c14.769-1.055,25.451-19.385,25.451-19.385l59.017-110.83A16.377,16.377,0,0,0,963.612,445.081Zm-44.535,14.594-43.872,82.26a4.863,4.863,0,0,1-4.335,2.548l-41.635-.321a2.712,2.712,0,0,1-2.424-3.982l45.08-83.032a2.778,2.778,0,0,1,2.445-1.438h42.287A2.712,2.712,0,0,1,919.077,459.675Z" transform="translate(-726.703 -408.203)"/><path d="M1086.835,452.22l-40.322-.132a3.975,3.975,0,0,0-3.563,2.213l-21.021,42.519a3.975,3.975,0,0,1-3.563,2.213H956.075a3.976,3.976,0,0,0-3.391,1.9L930.11,544.923a3.971,3.971,0,0,0-.049,4.062l18.925,39.282a3.977,3.977,0,0,0,3.5,1.984l65.7-.084a3.974,3.974,0,0,0,3.44-2.09l68.709-130A3.975,3.975,0,0,0,1086.835,452.22Zm-81.659,91.961a2.852,2.852,0,0,1-2.852,2.852H968.137a2.851,2.851,0,0,1-2.851-2.852v-.1a2.851,2.851,0,0,1,2.851-2.851h34.187a2.852,2.852,0,0,1,2.852,2.851Z" transform="translate(-726.703 -408.203)"/></svg>